#N canvas -16 7 1920 1012 12;
#X msg 99 133 listen 8000;
#X obj 99 192 netreceive -u -b;
#X msg 110 164 listen -1;
#X obj 100 240 list trim;
#X obj 99 216 oscparse;
#X obj 100 299 route x;
#X obj 177 468 route y;
#X obj 265 293 route z;
#X floatatom 101 322 5 0 0 0 - - - 0;
#X floatatom 179 490 5 0 0 0 - - - 0;
#X floatatom 265 317 5 0 0 0 - - - 0;
#X floatatom 101 414 5 0 0 0 - - - 0;
#X obj 102 457 mtof;
#X floatatom 102 481 5 0 0 0 - - - 0;
#X floatatom 179 561 5 0 0 0 - - - 0;
#X floatatom 265 388 5 0 0 0 - - - 0;
#X obj 100 370 + 40;
#X obj 99 13 loadbang;
#X obj 112 680 *~;
#X obj 101 346 * 44;
#X obj 264 501 expr~ if($v1 > 0 \, 1 \, -1);
#X obj 104 522 i;
#X obj 113 708 +~;
#X obj 115 738 osc~;
#X obj 82 919 dac~;
#X obj 179 513 * 44;
#X obj 179 537 + 50;
#X obj 109 586 osc~;
#X floatatom 206 650 5 0 0 0 - - - 0;
#X msg 217 616 230;
#X obj 925 124 sel 0 1 2 3;
#X obj 926 150 bng 15 250 50 0 empty empty empty 17 7 0 10 #fcfcfc
#000000 #000000;
#X obj 947 151 bng 15 250 50 0 empty empty empty 17 7 0 10 #fcfcfc
#000000 #000000;
#X obj 968 151 bng 15 250 50 0 empty empty empty 17 7 0 10 #fcfcfc
#000000 #000000;
#X obj 929 299 mtof;
#X obj 929 324 osc~;
#X obj 929 468 *~;
#X obj 929 239 loadbang;
#X obj 944 443 vline~;
#X obj 1043 299 mtof;
#X obj 1043 324 osc~;
#X obj 1043 468 *~;
#X obj 1043 239 loadbang;
#X obj 1058 443 vline~;
#X obj 1160 302 mtof;
#X obj 1160 327 osc~;
#X obj 1160 471 *~;
#X obj 1160 242 loadbang;
#X obj 1175 446 vline~;
#X obj 926 61 spigot;
#X obj 959 35 tgl 15 0 empty empty empty 17 7 0 10 #fcfcfc #000000
#000000 0 1;
#X floatatom 933 203 5 0 0 0 - - - 0;
#X floatatom 1045 208 5 0 0 0 - - - 0;
#X floatatom 1045 208 5 0 0 0 - - - 0;
#X floatatom 1162 212 5 0 0 0 - - - 0;
#X msg 929 274 69;
#X msg 1043 273 62;
#X msg 1160 277 58;
#X msg 1058 418 1 5 \, 0 600 5;
#X msg 1175 421 1 5 \, 0 600 5;
#X msg 944 418 1 5 \, 0 600 5;
#X obj 208 104 metro 250;
#X obj 208 78 tgl 15 0 empty empty empty 17 7 0 10 #fcfcfc #000000
#000000 0 1;
#X msg 297 73 250;
#X msg 341 76 200;
#X msg 385 76 150;
#X obj 1295 45 spigot;
#X obj 1328 19 tgl 15 0 empty empty empty 17 7 0 10 #fcfcfc #000000
#000000 0 1;
#X obj 1295 70 f;
#X obj 1326 69 + 1;
#X obj 1295 95 mod 4;
#X obj 1294 128 sel 0 1 2 3;
#X obj 1294 155 bng 15 250 50 0 empty empty empty 17 7 0 10 #fcfcfc
#000000 #000000;
#X obj 1315 156 bng 15 250 50 0 empty empty empty 17 7 0 10 #fcfcfc
#000000 #000000;
#X obj 1336 156 bng 15 250 50 0 empty empty empty 17 7 0 10 #fcfcfc
#000000 #000000;
#X obj 1297 304 mtof;
#X obj 1297 329 osc~;
#X obj 1297 473 *~;
#X obj 1297 244 loadbang;
#X obj 1312 448 vline~;
#X obj 1411 304 mtof;
#X obj 1411 329 osc~;
#X obj 1411 473 *~;
#X obj 1411 244 loadbang;
#X obj 1426 448 vline~;
#X obj 1528 307 mtof;
#X obj 1528 332 osc~;
#X obj 1528 476 *~;
#X obj 1528 247 loadbang;
#X obj 1543 451 vline~;
#X floatatom 1301 208 5 0 0 0 - - - 0;
#X floatatom 1413 213 5 0 0 0 - - - 0;
#X floatatom 1413 213 5 0 0 0 - - - 0;
#X floatatom 1530 217 5 0 0 0 - - - 0;
#X msg 1297 279 30;
#X msg 1543 426 1 5 \, 0 90 5;
#X msg 1426 423 1 5 \, 0 90 5;
#X msg 1312 423 1 5 \, 0 90 5;
#X obj 926 98 random 4;
#X floatatom 1222 124 5 0 0 0 - - - 0;
#X msg 1528 282 28;
#X msg 1411 278 31;
#X obj 1642 304 mtof;
#X obj 1642 329 osc~;
#X obj 1642 473 *~;
#X obj 1642 244 loadbang;
#X obj 1657 448 vline~;
#X floatatom 1644 214 5 0 0 0 - - - 0;
#X msg 1657 423 1 5 \, 0 90 5;
#X obj 1364 155 bng 15 250 50 0 empty empty empty 17 7 0 10 #fcfcfc
#000000 #000000;
#X msg 1642 279 36;
#X obj 498 305 bng 15 250 50 0 empty empty empty 17 7 0 10 #fcfcfc
#000000 #000000;
#X obj 519 305 bng 15 250 50 0 empty empty empty 17 7 0 10 #fcfcfc
#000000 #000000;
#X obj 539 305 bng 15 250 50 0 empty empty empty 17 7 0 10 #fcfcfc
#000000 #000000;
#X obj 559 305 bng 15 250 50 0 empty empty empty 17 7 0 10 #fcfcfc
#000000 #000000;
#X obj 498 205 f;
#X floatatom 498 253 5 0 0 0 - - - 0;
#X obj 528 205 + 1;
#X obj 498 277 sel 0 1 2 3 4 5 6 7 8;
#X obj 579 305 bng 15 250 50 0 empty empty empty 17 7 0 10 #fcfcfc
#000000 #000000;
#X obj 600 305 bng 15 250 50 0 empty empty empty 17 7 0 10 #fcfcfc
#000000 #000000;
#X obj 621 305 bng 15 250 50 0 empty empty empty 17 7 0 10 #fcfcfc
#000000 #000000;
#X obj 641 305 bng 15 250 50 0 empty empty empty 17 7 0 10 #fcfcfc
#000000 #000000;
#X obj 498 230 mod 8;
#X obj 498 177 spigot;
#X obj 537 153 tgl 15 0 empty \$0-4 empty 17 7 0 10 #fcfcfc #000000
#000000 0 1;
#X obj 507 545 *~;
#X obj 525 519 vline~;
#X obj 507 421 osc~;
#X obj 507 395 mtof;
#X obj 545 421 osc~;
#X obj 507 471 *~;
#X obj 545 446 *~ 1;
#X obj 507 340 loadbang;
#X msg 525 495 2 5 \, 0 10 5;
#X msg 545 396 230;
#X msg 507 369 44;
#X obj 683 540 *~;
#X obj 701 514 vline~;
#X obj 683 418 osc~;
#X obj 683 392 mtof;
#X obj 721 418 osc~;
#X obj 683 468 *~;
#X obj 721 443 *~ 1;
#X obj 683 337 loadbang;
#X msg 683 366 44;
#X msg 721 393 12;
#X msg 701 490 3 5 \, 0 10 5;
#X obj 562 611 hip~ 5;
#X obj 562 634 lop~ 4000;
#X obj 753 199 vline~;
#X obj 738 255 *~;
#X obj 738 226 osc~ 0.0025;
#X obj 753 141 spigot;
#X obj 786 113 tgl 15 0 empty \$0-3 empty 17 7 0 10 #fcfcfc #000000
#000000 0 1;
#X msg 753 171 1 \, 0 10;
#X obj 83 879 catch~ out;
#X obj 562 662 throw~ out;
#X obj 115 806 throw~ out;
#X obj 740 306 throw~ out;
#X obj 912 546 throw~ out;
#X obj 1049 549 throw~ out;
#X obj 1256 563 throw~ out;
#X obj 1380 564 throw~ out;
#X obj 1475 565 throw~ out;
#X obj 1573 560 throw~ out;
#X obj 1682 559 throw~ out;
#X obj 186 373 bng 15 250 50 0 empty empty empty 17 7 0 10 #fcfcfc
#000000 #000000;
#X obj 813 744 + 0;
#X obj 813 776 mtof;
#X obj 813 810 osc~;
#X obj 859 942 /~;
#X obj 857 1007 /~ 2;
#X obj 814 1073 *~;
#X obj 813 714 * 100;
#X obj 857 975 *~ 0.75;
#X obj 813 1138 *~ 100;
#X obj 813 1166 osc~;
#X obj 931 900 phasor~ 5;
#X obj 813 686 random 6;
#X obj 1072 780 /~;
#X obj 1070 845 /~ 2;
#X obj 1041 948 *~;
#X obj 1070 813 *~ 0.75;
#X obj 930 695 + 0;
#X obj 930 727 mtof;
#X obj 930 761 osc~;
#X obj 930 665 * 100;
#X obj 930 637 random 3;
#X obj 844 898 phasor~ 10;
#X obj 560 31 metro 100;
#X obj 1144 732 phasor~ 8;
#X obj 1057 734 phasor~ 960;
#X obj 814 1193 hip~ 5;
#X obj 639 105 metro 175;
#X obj 814 1222 throw~ out;
#X obj 821 540 spigot;
#X obj 863 481 tgl 15 0 empty empty empty 17 7 0 10 #fcfcfc #000000
#000000 0 1;
#X obj 738 279 *~ 0.2;
#X obj 562 588 *~ 0.3;
#X obj 814 1101 *~ 0.08;
#X obj 265 340 * 44;
#X obj 265 364 + 70;
#X obj 265 411 osc~;
#X obj 264 525 *~ 0.1;
#X obj 265 936 writesf~ 2;
#X msg 301 853 start;
#X msg 363 871 stop;
#X msg 265 799 open ni.wav;
#X obj 113 770 *~ 0.5;
#X connect 0 0 1 0;
#X connect 0 0 167 0;
#X connect 1 0 4 0;
#X connect 2 0 1 0;
#X connect 3 0 5 0;
#X connect 3 0 6 0;
#X connect 3 0 7 0;
#X connect 4 0 3 0;
#X connect 5 0 8 0;
#X connect 6 0 9 0;
#X connect 7 0 10 0;
#X connect 8 0 19 0;
#X connect 9 0 25 0;
#X connect 10 0 201 0;
#X connect 11 0 12 0;
#X connect 12 0 13 0;
#X connect 13 0 21 0;
#X connect 14 0 22 1;
#X connect 15 0 203 0;
#X connect 16 0 11 0;
#X connect 17 0 62 0;
#X connect 17 0 194 0;
#X connect 17 0 190 0;
#X connect 18 0 22 0;
#X connect 19 0 16 0;
#X connect 20 0 204 0;
#X connect 21 0 27 0;
#X connect 22 0 23 0;
#X connect 23 0 209 0;
#X connect 25 0 26 0;
#X connect 26 0 14 0;
#X connect 27 0 18 0;
#X connect 28 0 18 1;
#X connect 29 0 28 0;
#X connect 30 0 31 0;
#X connect 30 1 32 0;
#X connect 30 2 33 0;
#X connect 31 0 60 0;
#X connect 32 0 58 0;
#X connect 33 0 59 0;
#X connect 34 0 35 0;
#X connect 35 0 36 0;
#X connect 36 0 160 0;
#X connect 37 0 55 0;
#X connect 38 0 36 1;
#X connect 39 0 40 0;
#X connect 40 0 41 0;
#X connect 41 0 161 0;
#X connect 42 0 56 0;
#X connect 43 0 41 1;
#X connect 44 0 45 0;
#X connect 45 0 46 0;
#X connect 46 0 162 0;
#X connect 47 0 57 0;
#X connect 48 0 46 1;
#X connect 49 0 98 0;
#X connect 50 0 49 1;
#X connect 51 0 34 0;
#X connect 52 0 39 0;
#X connect 54 0 44 0;
#X connect 55 0 34 0;
#X connect 56 0 39 0;
#X connect 57 0 44 0;
#X connect 58 0 43 0;
#X connect 59 0 48 0;
#X connect 60 0 38 0;
#X connect 61 0 49 0;
#X connect 61 0 66 0;
#X connect 61 0 124 0;
#X connect 62 0 61 0;
#X connect 63 0 61 1;
#X connect 64 0 61 1;
#X connect 65 0 61 1;
#X connect 66 0 68 0;
#X connect 67 0 66 1;
#X connect 68 0 69 0;
#X connect 68 0 70 0;
#X connect 69 0 68 1;
#X connect 70 0 71 0;
#X connect 70 0 99 0;
#X connect 71 0 72 0;
#X connect 71 1 73 0;
#X connect 71 2 74 0;
#X connect 71 3 109 0;
#X connect 72 0 97 0;
#X connect 73 0 96 0;
#X connect 74 0 95 0;
#X connect 75 0 76 0;
#X connect 76 0 77 0;
#X connect 77 0 163 0;
#X connect 78 0 94 0;
#X connect 79 0 77 1;
#X connect 80 0 81 0;
#X connect 81 0 82 0;
#X connect 82 0 164 0;
#X connect 83 0 101 0;
#X connect 84 0 82 1;
#X connect 85 0 86 0;
#X connect 86 0 87 0;
#X connect 87 0 165 0;
#X connect 88 0 100 0;
#X connect 89 0 87 1;
#X connect 90 0 75 0;
#X connect 91 0 80 0;
#X connect 93 0 85 0;
#X connect 94 0 75 0;
#X connect 95 0 89 0;
#X connect 96 0 84 0;
#X connect 97 0 79 0;
#X connect 98 0 30 0;
#X connect 100 0 85 0;
#X connect 101 0 80 0;
#X connect 102 0 103 0;
#X connect 103 0 104 0;
#X connect 104 0 166 0;
#X connect 105 0 110 0;
#X connect 106 0 104 1;
#X connect 107 0 102 0;
#X connect 108 0 106 0;
#X connect 109 0 108 0;
#X connect 110 0 102 0;
#X connect 111 0 134 0;
#X connect 112 0 147 0;
#X connect 113 0 147 0;
#X connect 115 0 117 0;
#X connect 115 0 123 0;
#X connect 116 0 118 0;
#X connect 117 0 115 1;
#X connect 118 0 111 0;
#X connect 118 1 112 0;
#X connect 118 2 113 0;
#X connect 118 3 114 0;
#X connect 118 4 119 0;
#X connect 118 5 120 0;
#X connect 118 6 121 0;
#X connect 118 7 122 0;
#X connect 119 0 134 0;
#X connect 120 0 134 0;
#X connect 121 0 147 0;
#X connect 122 0 134 0;
#X connect 123 0 116 0;
#X connect 124 0 115 0;
#X connect 125 0 124 1;
#X connect 126 0 199 0;
#X connect 127 0 126 1;
#X connect 128 0 131 0;
#X connect 129 0 128 0;
#X connect 130 0 132 0;
#X connect 131 0 126 0;
#X connect 132 0 131 1;
#X connect 133 0 135 0;
#X connect 133 0 136 0;
#X connect 134 0 127 0;
#X connect 135 0 130 0;
#X connect 136 0 129 0;
#X connect 137 0 199 0;
#X connect 138 0 137 1;
#X connect 139 0 142 0;
#X connect 140 0 139 0;
#X connect 141 0 143 0;
#X connect 142 0 137 0;
#X connect 143 0 142 1;
#X connect 144 0 145 0;
#X connect 144 0 146 0;
#X connect 145 0 140 0;
#X connect 146 0 141 0;
#X connect 147 0 138 0;
#X connect 148 0 149 0;
#X connect 149 0 157 0;
#X connect 150 0 151 1;
#X connect 151 0 198 0;
#X connect 152 0 151 0;
#X connect 153 0 155 0;
#X connect 154 0 153 1;
#X connect 155 0 150 0;
#X connect 156 0 24 0;
#X connect 156 0 24 1;
#X connect 156 0 205 0;
#X connect 156 0 205 1;
#X connect 167 0 29 0;
#X connect 168 0 169 0;
#X connect 169 0 170 0;
#X connect 170 0 173 0;
#X connect 171 0 175 0;
#X connect 172 0 173 1;
#X connect 173 0 200 0;
#X connect 174 0 168 0;
#X connect 175 0 172 0;
#X connect 176 0 177 0;
#X connect 177 0 193 0;
#X connect 178 0 171 1;
#X connect 179 0 174 0;
#X connect 180 0 183 0;
#X connect 181 0 182 1;
#X connect 182 0 200 0;
#X connect 183 0 181 0;
#X connect 184 0 185 0;
#X connect 185 0 186 0;
#X connect 186 0 182 0;
#X connect 187 0 184 0;
#X connect 188 0 187 0;
#X connect 189 0 171 0;
#X connect 190 0 196 0;
#X connect 191 0 180 1;
#X connect 192 0 180 0;
#X connect 193 0 195 0;
#X connect 194 0 153 0;
#X connect 196 0 179 0;
#X connect 196 0 188 0;
#X connect 197 0 196 1;
#X connect 198 0 159 0;
#X connect 199 0 148 0;
#X connect 200 0 176 0;
#X connect 201 0 202 0;
#X connect 202 0 15 0;
#X connect 203 0 20 0;
#X connect 204 0 158 0;
#X connect 206 0 205 0;
#X connect 207 0 205 0;
#X connect 208 0 205 0;
#X connect 209 0 158 0;
