#N canvas 302 156 637 513 12;
#X obj 212 37 inlet;
#X obj 212 80 bng 15 250 50 0 empty empty empty 17 7 0 10 #fcfcfc #000000
#000000;
#X floatatom 212 129 5 0 0 0 - - - 0;
#X obj 48 206 sel 0;
#X msg 48 230 60;
#X floatatom 214 387 5 0 0 0 - - - 0;
#X floatatom 214 434 5 0 0 0 - - - 0;
#X obj 214 457 outlet;
#X obj 214 410 mtof;
#X obj 101 205 sel 1;
#X obj 155 204 sel 2;
#X obj 201 203 sel 3;
#X obj 248 203 sel 4;
#X obj 294 201 sel 5;
#X obj 339 202 sel 6;
#X obj 389 202 sel 7;
#X text 374 55 escala de dó;
#X text 392 26 MEIO TOM \, TOM;
#X msg 438 223 72;
#X obj 438 199 sel 8;
#X msg 101 229 61;
#X msg 155 228 63;
#X msg 200 228 64;
#X msg 248 227 66;
#X msg 294 225 67;
#X msg 339 226 69;
#X msg 389 226 70;
#X obj 212 100 random 9;
#X connect 0 0 1 0;
#X connect 1 0 27 0;
#X connect 2 0 3 0;
#X connect 2 0 9 0;
#X connect 2 0 10 0;
#X connect 2 0 11 0;
#X connect 2 0 12 0;
#X connect 2 0 13 0;
#X connect 2 0 14 0;
#X connect 2 0 15 0;
#X connect 2 0 19 0;
#X connect 3 0 4 0;
#X connect 4 0 5 0;
#X connect 5 0 8 0;
#X connect 6 0 7 0;
#X connect 8 0 6 0;
#X connect 9 0 20 0;
#X connect 10 0 21 0;
#X connect 11 0 22 0;
#X connect 12 0 23 0;
#X connect 13 0 24 0;
#X connect 14 0 25 0;
#X connect 15 0 26 0;
#X connect 18 0 5 0;
#X connect 19 0 18 0;
#X connect 20 0 5 0;
#X connect 21 0 5 0;
#X connect 22 0 5 0;
#X connect 23 0 5 0;
#X connect 24 0 5 0;
#X connect 25 0 5 0;
#X connect 26 0 5 0;
#X connect 27 0 2 0;
