#N canvas 161 9 1920 1012 12;
#X obj 32 48 tgl 50 0 empty empty main 17 7 0 10 #fcfcfc #000000 #000000
0 1;
#X obj 32 103 s toggle;
#X obj 93 569 bng 15 250 50 0 empty empty empty 17 7 0 10 #fcfcfc #000000
#000000;
#X obj 19 606 acordes_escalas;
#X floatatom 19 648 5 0 0 0 - - - 0;
#X obj 20 709 phasor~;
#X obj 19 753 lop~ 100;
#X obj 18 887 *~;
#X obj 18 911 *~ 0.5;
#X obj 18 935 s~ ambiente;
#X obj 118 680 * 1.001;
#X floatatom 118 704 5 0 0 0 - - - 0;
#X obj 118 727 phasor~;
#X obj 192 584 bng 15 250 50 0 empty empty empty 17 7 0 10 #fcfcfc
#000000 #000000;
#X msg 194 635 1 500;
#X obj 192 711 line;
#X msg 248 684 0 500;
#X obj 758 958 dac~;
#X obj 649 738 r~ baixo;
#X obj 742 746 r~ ambiente;
#X msg 569 584 start;
#X msg 576 613 stop;
#X obj 564 643 writesf~ 2;
#X obj 456 408 clip~ -1 1, f 40;
#X floatatom 733 385 5 0 0 0 - - - 0;
#X floatatom 594 385 5 0 0 0 - - - 0;
#X obj 455 68 tgl 15 0 empty empty empty 17 7 0 10 #fcfcfc #000000
#000000 0 1;
#X obj 456 125 bng 15 250 50 0 empty empty empty 17 7 0 10 #fcfcfc
#000000 #000000;
#X obj 456 211 random 12;
#X obj 456 235 + 36;
#X floatatom 456 259 5 0 0 0 - - - 0;
#X obj 456 282 mtof;
#X floatatom 456 306 5 0 0 0 - - - 0;
#X msg 456 329 \$1 500;
#X obj 456 353 line;
#X obj 667 178 tgl 15 0 empty empty empty 17 7 0 10 #fcfcfc #000000
#000000 0 1;
#X obj 667 199 metro 10;
#X obj 593 247 osc~ 0.123;
#X obj 594 289 snapshot~;
#X floatatom 594 313 5 0 0 0 - - - 0;
#X obj 594 336 abs;
#X obj 594 360 * -1;
#X obj 733 304 snapshot~;
#X floatatom 733 328 5 0 0 0 - - - 0;
#X obj 733 351 abs;
#X obj 732 262 osc~ 0.09;
#X obj 856 362 noise~;
#X obj 856 410 lop~ 500;
#X obj 962 358 noise~;
#X obj 962 406 lop~ 500;
#X obj 1089 77 tgl 15 0 empty empty empty 17 7 0 10 #fcfcfc #000000
#000000 0 1;
#X obj 1089 97 metro 3000;
#X obj 1089 124 bng 15 250 50 0 empty empty empty 17 7 0 10 #fcfcfc
#000000 #000000;
#X obj 1089 169 random 60;
#X obj 1089 193 + 67;
#X floatatom 1089 217 5 0 0 0 - - - 0;
#X obj 1089 240 mtof;
#X floatatom 1089 264 5 0 0 0 - - - 0;
#X msg 1089 287 \$1 2000;
#X obj 1089 311 line;
#X floatatom 1089 335 5 0 0 0 - - - 0;
#X obj 1245 120 random 6000;
#X floatatom 1245 144 5 0 0 0 - - - 0;
#X obj 457 583 s~ baixo;
#X msg 382 353 80;
#X obj 456 379 osc~;
#X obj 382 329 r toggle;
#X obj 457 559 *~ 0.4;
#X obj 455 39 r toggle;
#X obj 456 464 lop~ 6000;
#X obj 455 98 metro 6000;
#X obj 568 101 random 8000;
#X obj 332 177 i;
#X obj 342 125 + 1;
#X floatatom 332 201 5 0 0 0 - - - 0;
#X obj 332 248 + 1;
#X floatatom 332 271 5 0 0 0 - - - 0;
#X obj 248 623 delay 500;
#X obj 856 386 *~ 0.04;
#X obj 962 382 *~ 0.04;
#X obj 332 224 % 8;
#X obj 161 127 sel 1 2 3 4 5 6 7 8;
#X obj 85 360 tgl 15 0 empty empty empty 17 7 0 10 #fcfcfc #000000
#000000 0 1;
#X obj 99 452 metro 100;
#X obj 366 745 vline~;
#X obj 351 801 *~;
#X obj 351 772 osc~ 0.0025;
#X msg 366 717 1 \, 0 10;
#X obj 2445 701 metro 150;
#X obj 352 824 *~ 0.3;
#X msg 569 508 open nebulo.wav;
#X obj 1119 366 tgl 15 0 empty empty empty 17 7 0 10 #fcfcfc #000000
#000000 0 1;
#X obj 1119 386 metro 1000;
#X obj 1119 410 bng 15 250 50 0 empty empty empty 17 7 0 10 #fcfcfc
#000000 #000000;
#X obj 1119 492 random 24;
#X obj 1119 516 + 84;
#X floatatom 1119 540 5 0 0 0 - - - 0;
#X obj 1119 563 mtof;
#X floatatom 1119 587 5 0 0 0 - - - 0;
#X msg 1119 610 \$1 30;
#X obj 1119 634 line 0 3;
#X obj 1119 731 osc~;
#X obj 1119 905 *~ 0.1;
#X obj 1200 418 random 2000;
#X obj 1200 442 + 50;
#X floatatom 1200 466 5 0 0 0 - - - 0;
#X obj 1184 714 osc~;
#X obj 1181 905 *~ 0.1;
#X obj 1184 690 / 2;
#X obj 1311 714 osc~;
#X obj 1308 905 *~ 0.1;
#X obj 1311 690 / 3;
#X obj 1433 714 osc~;
#X obj 1430 905 *~ 0.1;
#X obj 1433 690 / 4;
#X obj 1532 714 osc~;
#X obj 1529 905 *~ 0.1;
#X obj 1532 690 / 5;
#X obj 1622 714 osc~;
#X obj 1619 905 *~ 0.1;
#X obj 1622 690 / 6;
#X obj 1719 714 osc~;
#X obj 1716 905 *~ 0.1;
#X obj 1822 714 osc~;
#X obj 1819 905 *~ 0.1;
#X obj 1719 690 / 7;
#X obj 1822 690 / 8;
#X obj 1924 714 osc~;
#X obj 1921 905 *~ 0.1;
#X obj 1924 690 / 9;
#X obj 1119 430 s trig;
#X obj 1225 753 r trig;
#X obj 1225 777 random 10;
#X obj 1225 801 * 0.01;
#X obj 1225 825 \$1 30;
#X obj 1225 849 line 0 3;
#X obj 1341 753 r trig;
#X obj 1341 777 random 10;
#X obj 1341 801 * 0.01;
#X obj 1341 825 \$1 30;
#X obj 1341 849 line 0 3;
#X obj 1456 753 r trig;
#X obj 1456 777 random 10;
#X obj 1456 801 * 0.01;
#X obj 1456 825 \$1 30;
#X obj 1456 849 line 0 3;
#X obj 1552 753 r trig;
#X obj 1552 777 random 10;
#X obj 1552 801 * 0.01;
#X obj 1552 825 \$1 30;
#X obj 1552 849 line 0 3;
#X obj 1642 753 r trig;
#X obj 1642 777 random 10;
#X obj 1642 801 * 0.01;
#X obj 1642 825 \$1 30;
#X obj 1642 849 line 0 3;
#X obj 1740 753 r trig;
#X obj 1740 777 random 10;
#X obj 1740 801 * 0.01;
#X obj 1740 825 \$1 30;
#X obj 1740 849 line 0 3;
#X obj 1855 753 r trig;
#X obj 1855 777 random 10;
#X obj 1855 801 * 0.01;
#X obj 1855 825 \$1 30;
#X obj 1855 849 line 0 3;
#X obj 1950 753 r trig;
#X obj 1950 777 random 10;
#X obj 1950 801 * 0.01;
#X obj 1950 825 \$1 30;
#X obj 1950 849 line 0 3;
#X obj 2444 660 tgl 15 0 empty empty empty 17 7 0 10 #fcfcfc #000000
#000000 0 1;
#X obj 30 136 tgl 50 0 empty empty empty 17 7 0 10 #fcfcfc #000000
#000000 0 1;
#X obj 30 195 s click;
#X obj 2434 601 r click;
#X text 1075 51 DON'T;
#X obj 856 916 r~ r;
#X obj 962 430 s~ r;
#X obj 856 434 s~ l;
#X obj 611 806 r~ l;
#X obj 1118 975 s~ out;
#X obj 822 637 r~ out;
#X obj 137 248 sel 40;
#X obj 1371 135 sel 1;
#X obj 1371 166 bng 25 250 50 0 empty empty empty 17 7 0 10 #fcfcfc
#000000 #000000;
#X obj 1409 229 bng 15 250 50 0 empty empty empty 17 7 0 10 #fcfcfc
#000000 #000000;
#X obj 1409 199 r New_Pattern;
#X obj 1790 432 bng 25 250 50 0 empty empty empty 17 7 0 10 #fcfcfc
#000000 #000000;
#X obj 1409 251 random 100;
#X obj 1409 277 < 100;
#X obj 1409 310 tgl 30 0 empty empty empty 17 7 0 10 #fcfcfc #202020
#000000 0 1;
#X obj 1370 356 spigot;
#X obj 1370 383 bng 25 250 50 0 empty empty empty 17 7 0 10 #ffffff
#000000 #000000;
#X obj 1512 164 bng 25 250 50 0 empty empty empty 17 7 0 10 #fcfcfc
#000000 #000000;
#X obj 1550 228 bng 15 250 50 0 empty empty empty 17 7 0 10 #fcfcfc
#000000 #000000;
#X obj 1550 198 r New_Pattern;
#X obj 1550 250 random 100;
#X obj 1511 355 spigot;
#X obj 1511 382 bng 25 250 50 0 empty empty empty 17 7 0 10 #fcfcfc
#000000 #000000;
#X obj 1550 309 tgl 30 0 empty empty empty 17 7 0 10 #fcfcfc #202020
#000000 0 1;
#X obj 1651 163 bng 25 250 50 0 empty empty empty 17 7 0 10 #fcfcfc
#000000 #000000;
#X obj 1689 227 bng 15 250 50 0 empty empty empty 17 7 0 10 #fcfcfc
#000000 #000000;
#X obj 1689 197 r New_Pattern;
#X obj 1689 249 random 100;
#X obj 1689 308 tgl 30 0 empty empty empty 17 7 0 10 #fcfcfc #202020
#000000 0 1;
#X obj 1650 354 spigot;
#X obj 1650 381 bng 25 250 50 0 empty empty empty 17 7 0 10 #fcfcfc
#000000 #000000;
#X obj 1791 162 bng 25 250 50 0 empty empty empty 17 7 0 10 #fcfcfc
#000000 #000000;
#X obj 1829 226 bng 15 250 50 0 empty empty empty 17 7 0 10 #fcfcfc
#000000 #000000;
#X obj 1829 196 r New_Pattern;
#X obj 1829 248 random 100;
#X obj 1790 353 spigot;
#X obj 1790 380 bng 25 250 50 0 empty empty empty 17 7 0 10 #fcfcfc
#000000 #000000;
#X obj 1829 307 tgl 30 0 empty empty empty 17 7 0 10 #fcfcfc #202020
#000000 0 1;
#X obj 1934 162 bng 25 250 50 0 empty empty empty 17 7 0 10 #fcfcfc
#000000 #000000;
#X obj 1972 226 bng 15 250 50 0 empty empty empty 17 7 0 10 #fcfcfc
#000000 #000000;
#X obj 1972 196 r New_Pattern;
#X obj 1972 248 random 100;
#X obj 1972 307 tgl 30 0 empty empty empty 17 7 0 10 #fcfcfc #202020
#000000 0 1;
#X obj 1933 353 spigot;
#X obj 1933 381 bng 25 250 50 0 empty empty empty 17 7 0 10 #fcfcfc
#000000 #000000;
#X obj 2074 163 bng 25 250 50 0 empty empty empty 17 7 0 10 #fcfcfc
#000000 #000000;
#X obj 2112 225 bng 15 250 50 0 empty empty empty 17 7 0 10 #fcfcfc
#000000 #000000;
#X obj 2112 195 r New_Pattern;
#X obj 2112 247 random 100;
#X obj 2073 352 spigot;
#X obj 2073 378 bng 25 250 50 0 empty empty empty 17 7 0 10 #fcfcfc
#000000 #000000;
#X obj 2112 306 tgl 30 0 empty empty empty 17 7 0 10 #fcfcfc #202020
#000000 0 1;
#X obj 2214 160 bng 25 250 50 0 empty empty empty 17 7 0 10 #fcfcfc
#000000 #000000;
#X obj 2252 224 bng 15 250 50 0 empty empty empty 17 7 0 10 #fcfcfc
#000000 #000000;
#X obj 2252 194 r New_Pattern;
#X obj 2252 246 random 100;
#X obj 2252 305 tgl 30 0 empty empty empty 17 7 0 10 #fcfcfc #202020
#000000 0 1;
#X obj 2213 351 spigot;
#X obj 2213 378 bng 25 250 50 0 empty empty empty 17 7 0 10 #fcfcfc
#000000 #000000;
#X obj 2357 159 bng 25 250 50 0 empty empty empty 17 7 0 10 #fcfcfc
#000000 #000000;
#X obj 2395 223 bng 15 250 50 0 empty empty empty 17 7 0 10 #fcfcfc
#000000 #000000;
#X obj 2395 193 r New_Pattern;
#X obj 2395 245 random 100;
#X obj 2356 350 spigot;
#X obj 2356 377 bng 25 250 50 0 empty empty empty 17 7 0 10 #fcfcfc
#000000 #000000;
#X obj 2395 304 tgl 30 0 empty empty empty 17 7 0 10 #fcfcfc #202020
#000000 0 1;
#X obj 1512 134 sel 2;
#X obj 1651 133 sel 3;
#X obj 1791 132 sel 4;
#X obj 1934 132 sel 5;
#X obj 2074 131 sel 6;
#X obj 2214 130 sel 7;
#X obj 2357 129 sel 8;
#X obj 1550 276 < 30;
#X obj 1689 275 < 80;
#X obj 1829 274 < 70;
#X obj 1972 274 < 30;
#X obj 2112 273 < 50;
#X obj 2252 272 < 70;
#X obj 2395 271 < 30;
#X obj 2528 158 bng 25 250 50 0 empty empty empty 17 7 0 10 #fcfcfc
#000000 #000000;
#X obj 2566 222 bng 15 250 50 0 empty empty empty 17 7 0 10 #fcfcfc
#000000 #000000;
#X obj 2566 192 r New_Pattern;
#X obj 2566 244 random 100;
#X obj 2527 349 spigot;
#X obj 2527 376 bng 25 250 50 0 empty empty empty 17 7 0 10 #fcfcfc
#000000 #000000;
#X obj 2566 303 tgl 30 0 empty empty empty 17 7 0 10 #fcfcfc #202020
#000000 0 1;
#X obj 2566 270 < 30;
#X obj 2528 128 sel 9;
#X obj 2445 725 i;
#X obj 2514 740 + 1;
#X obj 2445 749 % 9, f 2;
#X obj 2305 558 + 1;
#X obj 2070 945 s New_Pattern;
#X obj 2070 881 bng 25 250 50 0 empty empty empty 17 7 0 10 #fcfcfc
#000000 #000000;
#X obj 2070 857 del;
#X obj 2046 847 bng 15 250 50 0 empty empty empty 17 7 0 10 #fcfcfc
#000000 #000000;
#X obj 2070 823 sel 1;
#X obj 2125 821 - 10;
#X obj 2125 764 r whole_time;
#X obj 2125 791 / 4;
#X obj 2177 851 tgl 25 0 empty empty empty 17 7 0 10 #fcfcfc #000000
#000000 0 1;
#X obj 2070 916 spigot;
#X obj 2177 821 loadbang;
#X floatatom 1937 546 5 0 0 0 - - - 0;
#X obj 776 106 sel 80;
#X connect 0 0 1 0;
#X connect 2 0 3 0;
#X connect 2 0 13 0;
#X connect 3 0 4 0;
#X connect 4 0 5 0;
#X connect 4 0 10 0;
#X connect 5 0 6 0;
#X connect 6 0 7 0;
#X connect 7 0 8 0;
#X connect 8 0 9 0;
#X connect 10 0 11 0;
#X connect 11 0 12 0;
#X connect 12 0 6 0;
#X connect 13 0 14 0;
#X connect 13 0 77 0;
#X connect 14 0 15 0;
#X connect 15 0 7 1;
#X connect 16 0 15 0;
#X connect 18 0 17 0;
#X connect 18 0 17 1;
#X connect 19 0 17 1;
#X connect 20 0 22 0;
#X connect 21 0 22 0;
#X connect 23 0 69 0;
#X connect 24 0 23 2;
#X connect 25 0 23 1;
#X connect 26 0 70 0;
#X connect 27 0 28 0;
#X connect 27 0 72 0;
#X connect 28 0 29 0;
#X connect 29 0 30 0;
#X connect 30 0 31 0;
#X connect 31 0 32 0;
#X connect 32 0 33 0;
#X connect 33 0 34 0;
#X connect 34 0 65 0;
#X connect 35 0 36 0;
#X connect 36 0 38 0;
#X connect 36 0 42 0;
#X connect 37 0 38 0;
#X connect 38 0 39 0;
#X connect 39 0 40 0;
#X connect 40 0 41 0;
#X connect 41 0 25 0;
#X connect 42 0 43 0;
#X connect 43 0 44 0;
#X connect 44 0 24 0;
#X connect 45 0 42 0;
#X connect 46 0 78 0;
#X connect 47 0 178 0;
#X connect 48 0 79 0;
#X connect 49 0 177 0;
#X connect 50 0 51 0;
#X connect 51 0 52 0;
#X connect 52 0 53 0;
#X connect 52 0 61 0;
#X connect 53 0 54 0;
#X connect 54 0 55 0;
#X connect 55 0 56 0;
#X connect 56 0 57 0;
#X connect 57 0 58 0;
#X connect 58 0 59 0;
#X connect 59 0 60 0;
#X connect 60 0 47 1;
#X connect 60 0 49 1;
#X connect 61 0 62 0;
#X connect 62 0 51 1;
#X connect 64 0 65 0;
#X connect 65 0 23 0;
#X connect 66 0 35 0;
#X connect 66 0 64 0;
#X connect 67 0 63 0;
#X connect 68 0 26 0;
#X connect 69 0 67 0;
#X connect 70 0 27 0;
#X connect 70 0 71 0;
#X connect 71 0 70 1;
#X connect 72 0 73 0;
#X connect 72 0 74 0;
#X connect 73 0 72 1;
#X connect 74 0 80 0;
#X connect 74 0 182 0;
#X connect 75 0 76 0;
#X connect 76 0 81 0;
#X connect 77 0 16 0;
#X connect 78 0 47 0;
#X connect 79 0 49 0;
#X connect 80 0 75 0;
#X connect 81 2 91 0;
#X connect 81 4 91 0;
#X connect 81 7 91 0;
#X connect 81 8 91 0;
#X connect 82 0 83 0;
#X connect 83 0 2 0;
#X connect 84 0 85 1;
#X connect 85 0 89 0;
#X connect 86 0 85 0;
#X connect 87 0 84 0;
#X connect 88 0 265 0;
#X connect 89 0 17 1;
#X connect 89 0 17 0;
#X connect 90 0 22 0;
#X connect 91 0 92 0;
#X connect 92 0 93 0;
#X connect 93 0 94 0;
#X connect 93 0 103 0;
#X connect 93 0 130 0;
#X connect 94 0 95 0;
#X connect 95 0 96 0;
#X connect 96 0 97 0;
#X connect 97 0 98 0;
#X connect 98 0 99 0;
#X connect 99 0 100 0;
#X connect 100 0 101 0;
#X connect 100 0 108 0;
#X connect 100 0 111 0;
#X connect 100 0 114 0;
#X connect 100 0 117 0;
#X connect 100 0 120 0;
#X connect 100 0 125 0;
#X connect 100 0 129 0;
#X connect 100 0 126 0;
#X connect 101 0 102 0;
#X connect 102 0 180 0;
#X connect 103 0 104 0;
#X connect 104 0 105 0;
#X connect 105 0 92 1;
#X connect 106 0 107 0;
#X connect 107 0 180 0;
#X connect 108 0 106 0;
#X connect 109 0 110 0;
#X connect 110 0 180 0;
#X connect 111 0 109 0;
#X connect 112 0 113 0;
#X connect 113 0 180 0;
#X connect 114 0 112 0;
#X connect 115 0 116 0;
#X connect 116 0 180 0;
#X connect 117 0 115 0;
#X connect 118 0 119 0;
#X connect 119 0 180 0;
#X connect 120 0 118 0;
#X connect 121 0 122 0;
#X connect 122 0 180 0;
#X connect 123 0 124 0;
#X connect 124 0 180 0;
#X connect 125 0 121 0;
#X connect 126 0 123 0;
#X connect 127 0 128 0;
#X connect 128 0 180 0;
#X connect 129 0 127 0;
#X connect 131 0 132 0;
#X connect 132 0 133 0;
#X connect 133 0 134 0;
#X connect 134 0 135 0;
#X connect 135 0 107 1;
#X connect 136 0 137 0;
#X connect 137 0 138 0;
#X connect 138 0 139 0;
#X connect 139 0 140 0;
#X connect 140 0 110 1;
#X connect 141 0 142 0;
#X connect 142 0 143 0;
#X connect 143 0 144 0;
#X connect 144 0 145 0;
#X connect 145 0 113 1;
#X connect 146 0 147 0;
#X connect 147 0 148 0;
#X connect 148 0 149 0;
#X connect 149 0 150 0;
#X connect 150 0 116 1;
#X connect 151 0 152 0;
#X connect 152 0 153 0;
#X connect 153 0 154 0;
#X connect 154 0 155 0;
#X connect 155 0 119 1;
#X connect 156 0 157 0;
#X connect 157 0 158 0;
#X connect 158 0 159 0;
#X connect 159 0 160 0;
#X connect 160 0 122 1;
#X connect 161 0 162 0;
#X connect 162 0 163 0;
#X connect 163 0 164 0;
#X connect 164 0 165 0;
#X connect 165 0 124 1;
#X connect 166 0 167 0;
#X connect 167 0 168 0;
#X connect 168 0 169 0;
#X connect 169 0 170 0;
#X connect 170 0 128 1;
#X connect 171 0 88 0;
#X connect 172 0 173 0;
#X connect 174 0 171 0;
#X connect 176 0 17 1;
#X connect 179 0 17 0;
#X connect 181 0 17 0;
#X connect 182 0 82 0;
#X connect 183 0 184 0;
#X connect 184 0 191 0;
#X connect 185 0 188 0;
#X connect 186 0 185 0;
#X connect 187 0 87 0;
#X connect 188 0 189 0;
#X connect 189 0 190 0;
#X connect 190 0 191 1;
#X connect 191 0 192 0;
#X connect 192 0 187 0;
#X connect 193 0 197 0;
#X connect 194 0 196 0;
#X connect 195 0 194 0;
#X connect 196 0 249 0;
#X connect 197 0 198 0;
#X connect 198 0 187 0;
#X connect 199 0 197 1;
#X connect 200 0 205 0;
#X connect 201 0 203 0;
#X connect 202 0 201 0;
#X connect 203 0 250 0;
#X connect 204 0 205 1;
#X connect 205 0 206 0;
#X connect 206 0 187 0;
#X connect 207 0 211 0;
#X connect 208 0 210 0;
#X connect 209 0 208 0;
#X connect 210 0 251 0;
#X connect 211 0 212 0;
#X connect 212 0 187 0;
#X connect 213 0 211 1;
#X connect 214 0 219 0;
#X connect 215 0 217 0;
#X connect 216 0 215 0;
#X connect 217 0 252 0;
#X connect 218 0 219 1;
#X connect 219 0 220 0;
#X connect 220 0 187 0;
#X connect 221 0 225 0;
#X connect 222 0 224 0;
#X connect 223 0 222 0;
#X connect 224 0 253 0;
#X connect 225 0 226 0;
#X connect 226 0 187 0;
#X connect 227 0 225 1;
#X connect 228 0 233 0;
#X connect 229 0 231 0;
#X connect 230 0 229 0;
#X connect 231 0 254 0;
#X connect 232 0 233 1;
#X connect 233 0 234 0;
#X connect 234 0 187 0;
#X connect 235 0 239 0;
#X connect 236 0 238 0;
#X connect 237 0 236 0;
#X connect 238 0 255 0;
#X connect 239 0 240 0;
#X connect 240 0 187 0;
#X connect 241 0 239 1;
#X connect 242 0 193 0;
#X connect 243 0 200 0;
#X connect 244 0 207 0;
#X connect 245 0 214 0;
#X connect 246 0 221 0;
#X connect 247 0 228 0;
#X connect 248 0 235 0;
#X connect 249 0 199 0;
#X connect 250 0 204 0;
#X connect 251 0 213 0;
#X connect 252 0 218 0;
#X connect 253 0 227 0;
#X connect 254 0 232 0;
#X connect 255 0 241 0;
#X connect 256 0 260 0;
#X connect 257 0 259 0;
#X connect 258 0 257 0;
#X connect 259 0 263 0;
#X connect 260 0 261 0;
#X connect 261 0 187 0;
#X connect 262 0 260 1;
#X connect 263 0 262 0;
#X connect 264 0 256 0;
#X connect 265 0 266 0;
#X connect 265 0 267 0;
#X connect 265 0 280 0;
#X connect 266 0 265 1;
#X connect 267 0 268 0;
#X connect 268 0 183 0;
#X connect 268 0 242 0;
#X connect 268 0 243 0;
#X connect 268 0 244 0;
#X connect 268 0 245 0;
#X connect 268 0 246 0;
#X connect 268 0 247 0;
#X connect 268 0 248 0;
#X connect 268 0 264 0;
#X connect 268 0 273 0;
#X connect 270 0 278 0;
#X connect 271 0 270 0;
#X connect 273 0 271 0;
#X connect 273 0 272 0;
#X connect 274 0 271 1;
#X connect 275 0 276 0;
#X connect 276 0 274 0;
#X connect 277 0 278 1;
#X connect 278 0 269 0;
#X connect 279 0 277 0;
#X connect 280 0 281 0;
#X connect 281 0 50 0;
